Coordinates
version=1
nRows=16
nColumns=63
inDegrees=yes

Units are S.I. units (second, meters, Newtons, ...)
If the header above contains a line with 'inDegrees', this indicates whether rotational values are in degrees (yes) or radians (no).

endheader
time	pelvis_tilt	pelvis_list	pelvis_rotation	pelvis_tx	pelvis_ty	pelvis_tz	hip_flexion_r	hip_adduction_r	hip_rotation_r	knee_angle_r	knee_angle_r_beta	ankle_angle_r	subtalar_angle_r	mtp_angle_r	hip_flexion_l	hip_adduction_l	hip_rotation_l	knee_angle_l	knee_angle_l_beta	ankle_angle_l	subtalar_angle_l	mtp_angle_l	L5_S1_Flex_Ext	L5_S1_Lat_Bending	L5_S1_axial_rotation	L4_L5_Flex_Ext	L4_L5_Lat_Bending	L4_L5_axial_rotation	L3_L4_Flex_Ext	L3_L4_Lat_Bending	L3_L4_axial_rotation	L2_L3_Flex_Ext	L2_L3_Lat_Bending	L2_L3_axial_rotation	L1_L2_Flex_Ext	L1_L2_Lat_Bending	L1_L2_axial_rotation	L1_T12_Flex_Ext	L1_T12_Lat_Bending	L1_T12_axial_rotation	Abs_r3	Abs_r2	Abs_r1	Abs_t1	Abs_t2	neck_flexion	neck_bending	neck_rotation	arm_flex_r	arm_add_r	arm_rot_r	elbow_flex_r	pro_sup_r	wrist_flex_r	wrist_dev_r	arm_flex_l	arm_add_l	arm_rot_l	elbow_flex_l	pro_sup_l	wrist_flex_l	wrist_dev_l
1.389831	0.663670	-5.197609	81.726393	0.180339	0.996478	0.492009	0.406115	1.943693	0.341234	12.262049	0.214013	24.790257	4.572418	0.000000	-2.522992	-2.153881	-12.675421	7.764902	0.135523	25.039168	11.176642	0.000000	-0.031446	0.090633	0.775495	-0.058397	0.120541	0.823963	-0.051662	0.220364	0.823963	-0.035939	0.220364	0.678558	-0.029200	0.184818	0.630089	-0.017968	0.140390	0.581621	-0.224612	1.025255	4.313068	0.000000	0.000000	25.388360	5.403387	9.355863	2.005755	-15.073833	36.541241	27.792767	84.391306	-7.223860	-7.240371	7.298023	-9.444627	82.895077	10.298371	55.882038	-15.577207	-9.481101
1.406780	0.713981	-5.165752	81.750609	0.180297	0.996499	0.491730	0.288264	1.991295	0.219386	12.189876	0.212753	24.783373	4.655649	0.000000	-2.599565	-2.225081	-13.076973	7.780638	0.135798	25.017975	11.573550	0.000000	-0.029115	0.097206	0.772944	-0.054069	0.129284	0.821252	-0.047833	0.236348	0.821252	-0.033275	0.236348	0.676326	-0.027036	0.198223	0.628017	-0.016636	0.150573	0.579708	-0.207964	1.099618	4.298880	0.000000	0.000000	25.345086	5.332796	9.322447	1.838167	-15.118650	35.325660	28.321706	85.041303	-6.597810	-6.671256	8.178023	-9.049442	92.752697	8.466861	50.964181	-16.375648	-9.952643
1.423729	0.770732	-5.147350	81.777374	0.180231	0.996503	0.491506	0.187817	2.048737	0.099295	12.119152	0.211519	24.772348	4.733508	0.000000	-2.658081	-2.304569	-13.472867	7.796331	0.136072	24.998019	11.969424	0.000000	-0.026751	0.105039	0.768236	-0.049680	0.139702	0.816251	-0.043950	0.255392	0.816251	-0.030574	0.255392	0.672207	-0.024841	0.214196	0.624192	-0.015286	0.162705	0.576177	-0.191081	1.188222	4.272700	0.000000	0.000000	25.313618	5.270946	9.310208	1.692413	-15.165994	34.205769	28.798648	85.517361	-5.987706	-6.169494	9.082543	-8.648939	102.446206	6.630622	46.672189	-17.095400	-10.259243
1.440678	0.827352	-5.147981	81.843109	0.180103	0.996483	0.491342	0.113718	2.103833	-0.097033	12.057141	0.210437	24.772162	4.870467	0.000000	-2.680269	-2.389062	-13.835318	7.825587	0.136582	24.987599	12.382254	0.000000	-0.023671	0.113442	0.752494	-0.043960	0.150878	0.799525	-0.038889	0.275823	0.799525	-0.027054	0.275823	0.658432	-0.021981	0.231331	0.611401	-0.013526	0.175722	0.564370	-0.169080	1.283281	4.185145	0.000000	0.000000	25.296579	5.240101	9.366391	1.575519	-15.205872	33.200451	29.224944	85.793872	-5.359046	-5.689906	9.959795	-8.268732	111.549814	4.909802	43.058077	-17.767094	-10.350007
1.457627	0.879345	-5.162943	81.949714	0.179916	0.996455	0.491216	0.062548	2.153521	-0.352424	12.006015	0.209544	24.777304	5.029231	0.000000	-2.668699	-2.479066	-14.217077	7.876687	0.137474	24.993692	12.895933	0.000000	-0.020093	0.121857	0.728445	-0.037315	0.162070	0.773973	-0.033011	0.296283	0.773973	-0.022965	0.296283	0.637390	-0.018659	0.248491	0.591862	-0.011481	0.188757	0.546334	-0.143525	1.378471	4.051393	0.000000	0.000000	25.286794	5.244324	9.497087	1.475728	-15.230100	32.337512	29.581671	85.835424	-4.763804	-5.269105	10.774190	-7.924354	119.614038	3.374637	39.894514	-18.217521	-10.328667
1.474576	0.944380	-5.171778	82.062163	0.179684	0.996458	0.491097	-0.001976	2.216159	-0.584110	11.936209	0.208326	24.763198	5.162622	0.000000	-2.668264	-2.570176	-14.479089	7.912326	0.138096	24.986962	13.267143	0.000000	-0.018642	0.132325	0.704672	-0.034620	0.175992	0.748714	-0.030627	0.321735	0.748714	-0.021306	0.321735	0.616588	-0.017311	0.269837	0.572546	-0.010652	0.204971	0.528504	-0.133157	1.496886	3.919173	0.000000	0.000000	25.281482	5.202839	9.610701	1.398422	-15.281120	31.704054	29.884503	85.557051	-4.166484	-4.893404	11.519511	-7.598792	126.350048	2.028450	37.623187	-18.538264	-10.253855
1.491525	1.007708	-5.183619	82.194900	0.179409	0.996462	0.490967	-0.059593	2.276681	-0.822221	11.869934	0.207169	24.748932	5.283760	0.000000	-2.660591	-2.653458	-14.622602	7.945054	0.138667	24.965257	13.518902	0.000000	-0.017218	0.142928	0.683098	-0.031976	0.190095	0.725792	-0.028288	0.347516	0.725792	-0.019679	0.347516	0.597711	-0.015989	0.291459	0.555018	-0.009839	0.221396	0.512324	-0.122990	1.616834	3.799189	0.000000	0.000000	25.280195	5.146051	9.706554	1.219936	-15.296792	30.683272	30.189212	85.538526	-3.534065	-4.494534	12.163219	-7.336140	130.945439	0.991141	36.363844	-18.595463	-10.263226
1.508475	1.064441	-5.191544	82.344414	0.179131	0.996473	0.490814	-0.117106	2.331797	-1.051845	11.807961	0.206088	24.734434	5.378328	0.000000	-2.653027	-2.728162	-14.683584	7.977410	0.139232	24.943155	13.708831	0.000000	-0.016245	0.152510	0.658959	-0.030169	0.202838	0.700144	-0.026690	0.370813	0.700144	-0.018567	0.370813	0.576589	-0.015085	0.310998	0.535404	-0.009283	0.236238	0.494219	-0.116039	1.725223	3.664932	0.000000	0.000000	25.270919	5.104749	9.817683	1.039256	-15.299990	29.801829	30.405940	85.405979	-2.991807	-4.237237	12.653275	-7.159844	133.662086	0.322477	35.473983	-18.267702	-10.290009
1.525424	1.110881	-5.193875	82.520009	0.178865	0.996479	0.490627	-0.181684	2.379726	-1.278274	11.740500	0.204910	24.722828	5.444240	0.000000	-2.647754	-2.793384	-14.674500	8.004857	0.139711	24.926091	13.871037	0.000000	-0.015620	0.159704	0.626959	-0.029007	0.212407	0.666144	-0.025662	0.388305	0.666144	-0.017852	0.388305	0.548589	-0.014504	0.325669	0.509404	-0.008925	0.247382	0.470219	-0.111570	1.806609	3.486959	0.000000	0.000000	25.266858	5.077432	9.902892	0.890930	-15.287809	29.190940	30.511313	85.223035	-2.620911	-4.132009	12.960661	-7.081732	134.046282	0.056650	35.487948	-17.776741	-10.443296
1.542373	1.139374	-5.188925	82.711639	0.178645	0.996461	0.490411	-0.252356	2.413238	-1.491528	11.671841	0.203712	24.724399	5.485942	0.000000	-2.648195	-2.839439	-14.576105	8.023330	0.140034	24.918003	13.974347	0.000000	-0.015188	0.163148	0.588164	-0.028206	0.216987	0.624924	-0.024953	0.396678	0.624924	-0.017359	0.396678	0.514643	-0.014104	0.332691	0.477883	-0.008679	0.252716	0.441123	-0.108488	1.845563	3.271191	0.000000	0.000000	25.264759	5.086540	9.965267	0.801128	-15.260649	28.978088	30.476986	84.993086	-2.485680	-4.241988	13.075799	-7.127052	132.232366	0.218095	36.299452	-17.138277	-10.700004
1.559322	1.150859	-5.184128	82.900970	0.178521	0.996404	0.490210	-0.313971	2.438160	-1.662419	11.611897	0.202666	24.735854	5.475455	0.000000	-2.647149	-2.868432	-14.394568	8.031986	0.140185	24.918484	13.998813	0.000000	-0.014161	0.162856	0.545932	-0.026298	0.216598	0.580053	-0.023265	0.395967	0.580053	-0.016184	0.395967	0.477690	-0.013150	0.332095	0.443570	-0.008091	0.252263	0.409449	-0.101148	1.842255	3.036310	0.000000	0.000000	25.267007	5.121105	10.019402	0.798741	-15.215509	29.229279	30.278612	84.712979	-2.570254	-4.550306	12.986862	-7.307115	128.075886	0.854141	38.043531	-16.348475	-10.951753
1.576271	1.143369	-5.160244	83.073200	0.178483	0.996322	0.490029	-0.384074	2.447991	-1.769908	11.563338	0.201818	24.757502	5.400946	0.000000	-2.658678	-2.884551	-14.279086	8.052481	0.140542	24.954544	14.116710	0.000000	-0.015267	0.158338	0.509709	-0.028352	0.210590	0.541566	-0.025082	0.384984	0.541566	-0.017449	0.384984	0.445995	-0.014177	0.322884	0.414138	-0.008724	0.245266	0.382282	-0.109050	1.791156	2.834848	0.000000	0.000000	25.269347	5.180030	9.998065	0.855175	-15.165776	29.876326	29.962256	84.500691	-2.932659	-5.025112	12.840033	-7.649392	122.289635	1.842271	41.220239	-15.946630	-11.218920
1.593220	1.142355	-5.143481	83.197734	0.178467	0.996227	0.489855	-0.436277	2.460645	-1.838860	11.528682	0.201213	24.779431	5.343764	0.000000	-2.673121	-2.901226	-14.180687	8.060987	0.140691	24.996429	14.206014	0.000000	-0.015503	0.154878	0.476475	-0.028790	0.205988	0.506255	-0.025470	0.376570	0.506255	-0.017718	0.376570	0.416916	-0.014396	0.315827	0.387136	-0.008858	0.239906	0.357357	-0.110735	1.752009	2.650013	0.000000	0.000000	25.275850	5.251257	9.987920	0.989787	-15.142494	30.917660	29.546240	84.351951	-3.515721	-5.614934	12.841329	-7.747889	121.526053	1.930180	40.291122	-15.545954	-11.802322
1.610169	1.133888	-5.124421	83.273554	0.178528	0.996112	0.489725	-0.474905	2.465997	-1.851556	11.513926	0.200956	24.806448	5.270727	0.000000	-2.695381	-2.904055	-14.082863	8.059358	0.140662	25.023042	14.223555	0.000000	-0.016223	0.150057	0.449431	-0.030128	0.199576	0.477520	-0.026653	0.364849	0.477520	-0.018542	0.364849	0.393252	-0.015065	0.305997	0.365162	-0.009270	0.232439	0.337073	-0.115881	1.697478	2.499599	0.000000	0.000000	25.285760	5.333634	9.965472	1.190260	-15.125888	32.276234	29.039601	84.247747	-4.324540	-6.303314	12.795810	-7.848604	121.364696	1.972680	38.817560	-15.335808	-12.374326
1.627119	1.126224	-5.108022	83.293940	0.178641	0.995976	0.489647	-0.495797	2.472119	-1.793620	11.517907	0.201025	24.834847	5.173335	0.000000	-2.720005	-2.904036	-14.031264	8.053107	0.140553	25.036965	14.213889	0.000000	-0.016845	0.145611	0.433467	-0.031282	0.193663	0.460559	-0.027674	0.354038	0.460559	-0.019252	0.354038	0.379284	-0.015642	0.296930	0.352192	-0.009625	0.225551	0.325100	-0.120320	1.647180	2.410814	0.000000	0.000000	25.298509	5.406507	9.930335	1.391367	-15.117266	33.669453	28.528041	84.211798	-5.195851	-6.948906	12.715407	-7.928381	121.560016	1.976266	37.377742	-15.436393	-12.818487
1.644068	1.117229	-5.091374	83.255252	0.178796	0.995839	0.489633	-0.501695	2.472150	-1.691336	11.540165	0.201414	24.867363	5.094987	0.000000	-2.751953	-2.891282	-13.966208	8.032073	0.140186	25.013310	14.076112	0.000000	-0.018044	0.141576	0.426857	-0.033510	0.188296	0.453536	-0.029645	0.344227	0.453536	-0.020623	0.344227	0.373500	-0.016756	0.288701	0.346821	-0.010310	0.219301	0.320143	-0.128888	1.601533	2.374051	0.000000	0.000000	25.309269	5.481701	9.905954	1.615049	-15.126661	35.158355	28.007136	84.167062	-6.134118	-7.569510	12.594000	-7.992602	122.228852	1.938629	35.614798	-15.713794	-13.204826
